<?xml version="1.0" encoding="utf-8"?>
<!-- Generator: Adobe Illustrator 24.1.1, SVG Export Plug-In . SVG Version: 6.00 Build 0)  -->
<svg version="1.1" id="Layer_1" xmlns="http://www.w3.org/2000/svg" xmlns:xlink="http://www.w3.org/1999/xlink" x="0px" y="0px"
	 viewBox="0 0 458.44 115.56" style="enable-background:new 0 0 458.44 115.56;" xml:space="preserve">
<style type="text/css">
	.st0{fill:#F48020;}
	.st1{fill:#EE3928;}
	.st2{fill:#CC2128;}
	.st3{fill:#FFFFFF;}
	.st4{fill:#0D2E4C;}
</style>
<g>
	<polygon class="st0" points="85.76,41.17 85.76,59.84 73.64,66.64 73.91,47.89 53.02,59.2 53.02,115.56 73.85,104.53 73.85,83.2 
		85.76,76.94 85.76,97.73 105.4,87.37 105.4,30.51 	"/>
	<polygon class="st0" points="79.56,14.46 79.56,14.46 53.04,0 53.04,28.92 53.04,28.92 79.56,43.37 	"/>
	<polygon class="st1" points="53.04,28.92 53.04,28.91 53.04,0 26.52,14.46 26.52,14.46 0.01,28.91 26.52,43.37 26.52,43.37 	"/>
	<polygon class="st2" points="53.02,86.65 53.03,86.65 26.52,72.19 26.52,43.3 26.46,43.33 0.01,28.91 0.01,57.74 0.01,57.83 
		0.01,86.66 0,86.66 26.52,101.12 26.52,101.11 53.02,115.56 	"/>
	<g>
		<path class="st4" d="M150.68,77.43c-2.54-1.36-4.53-3.26-5.99-5.68c-1.45-2.42-2.18-5.16-2.18-8.21c0-3.05,0.73-5.79,2.18-8.21
			c1.45-2.42,3.45-4.31,5.99-5.68c2.54-1.36,5.39-2.05,8.56-2.05c2.67,0,5.08,0.47,7.24,1.41c2.16,0.94,3.97,2.29,5.44,4.05
			l-4.58,4.23c-2.08-2.41-4.67-3.61-7.75-3.61c-1.91,0-3.61,0.42-5.11,1.26c-1.5,0.84-2.66,2-3.5,3.5c-0.84,1.5-1.25,3.2-1.25,5.11
			c0,1.91,0.42,3.61,1.25,5.11c0.84,1.5,2,2.66,3.5,3.5c1.5,0.84,3.2,1.26,5.11,1.26c3.08,0,5.66-1.22,7.75-3.65l4.58,4.23
			c-1.47,1.79-3.29,3.16-5.46,4.09c-2.17,0.94-4.59,1.41-7.26,1.41C156.06,79.48,153.22,78.8,150.68,77.43"/>
		<path class="st4" d="M186.11,55.8c1.39-0.59,3-0.88,4.82-0.88v6.34c-0.76-0.06-1.28-0.09-1.54-0.09c-1.97,0-3.51,0.55-4.62,1.65
			c-1.11,1.1-1.67,2.75-1.67,4.95v11.18h-6.87V55.27h6.56v3.13C183.61,57.25,184.72,56.38,186.11,55.8"/>
		<path class="st4" d="M199.36,77.74c-1.98-1.04-3.53-2.49-4.64-4.33c-1.12-1.85-1.67-3.95-1.67-6.29c0-2.35,0.56-4.45,1.67-6.3
			c1.12-1.85,2.66-3.29,4.64-4.34c1.98-1.04,4.22-1.56,6.71-1.56c2.49,0,4.72,0.52,6.69,1.56c1.97,1.04,3.51,2.49,4.62,4.34
			c1.11,1.85,1.67,3.95,1.67,6.3c0,2.35-0.56,4.45-1.67,6.29c-1.12,1.85-2.66,3.29-4.62,4.33c-1.97,1.04-4.2,1.56-6.69,1.56
			C203.58,79.3,201.35,78.78,199.36,77.74 M210.41,71.89c1.13-1.19,1.69-2.78,1.69-4.78c0-2-0.57-3.59-1.69-4.78
			c-1.13-1.19-2.58-1.78-4.34-1.78c-1.76,0-3.21,0.59-4.36,1.78c-1.15,1.19-1.72,2.78-1.72,4.78c0,2,0.57,3.59,1.72,4.78
			c1.14,1.19,2.6,1.78,4.36,1.78C207.84,73.67,209.28,73.08,210.41,71.89"/>
		<polygon class="st4" points="261.01,55.27 252.43,78.95 245.83,78.95 240.5,64.25 235,78.95 228.4,78.95 219.86,55.27 
			226.33,55.27 231.92,71.29 237.73,55.27 243.54,55.27 249.17,71.29 254.94,55.27 		"/>
		<path class="st4" d="M287.69,46.29v32.66h-6.56v-2.73c-1.7,2.05-4.17,3.08-7.4,3.08c-2.23,0-4.25-0.5-6.05-1.5
			c-1.8-1-3.22-2.42-4.25-4.27c-1.03-1.85-1.54-3.99-1.54-6.43c0-2.44,0.51-4.58,1.54-6.43c1.03-1.85,2.44-3.27,4.25-4.27
			c1.81-1,3.82-1.5,6.05-1.5c3.02,0,5.39,0.95,7.09,2.86V46.29H287.69z M279.24,71.89c1.14-1.19,1.72-2.78,1.72-4.78
			c0-2-0.57-3.59-1.72-4.78c-1.15-1.19-2.58-1.78-4.31-1.78c-1.76,0-3.21,0.59-4.36,1.78c-1.14,1.19-1.72,2.78-1.72,4.78
			c0,2,0.57,3.59,1.72,4.78c1.15,1.19,2.6,1.78,4.36,1.78C276.66,73.67,278.09,73.08,279.24,71.89"/>
		<path class="st4" d="M317.09,69.05h-17.92c0.32,1.47,1.09,2.63,2.29,3.48c1.2,0.85,2.7,1.28,4.49,1.28c1.23,0,2.33-0.18,3.28-0.55
			c0.95-0.37,1.84-0.95,2.66-1.74l3.65,3.96c-2.23,2.55-5.49,3.83-9.77,3.83c-2.67,0-5.03-0.52-7.09-1.56
			c-2.05-1.04-3.64-2.49-4.75-4.33c-1.11-1.85-1.67-3.95-1.67-6.3c0-2.32,0.55-4.41,1.65-6.27c1.1-1.86,2.61-3.32,4.53-4.36
			c1.92-1.04,4.07-1.56,6.45-1.56c2.32,0,4.42,0.5,6.29,1.5c1.88,1,3.35,2.43,4.42,4.29c1.07,1.86,1.61,4.03,1.61,6.49
			C317.23,67.29,317.18,67.9,317.09,69.05 M301.03,61.43c-1.06,0.88-1.7,2.08-1.94,3.61h11.67c-0.23-1.5-0.88-2.69-1.94-3.59
			c-1.06-0.9-2.35-1.34-3.87-1.34C303.39,60.11,302.08,60.55,301.03,61.43"/>
		<path class="st4" d="M345.93,46.29v32.66h-6.56v-2.73c-1.7,2.05-4.17,3.08-7.4,3.08c-2.23,0-4.25-0.5-6.05-1.5
			c-1.8-1-3.22-2.42-4.25-4.27c-1.03-1.85-1.54-3.99-1.54-6.43c0-2.44,0.51-4.58,1.54-6.43c1.03-1.85,2.44-3.27,4.25-4.27
			c1.8-1,3.82-1.5,6.05-1.5c3.02,0,5.39,0.95,7.09,2.86V46.29H345.93z M337.48,71.89c1.14-1.19,1.72-2.78,1.72-4.78
			c0-2-0.57-3.59-1.72-4.78c-1.15-1.19-2.58-1.78-4.31-1.78c-1.76,0-3.21,0.59-4.36,1.78c-1.14,1.19-1.72,2.78-1.72,4.78
			c0,2,0.57,3.59,1.72,4.78c1.15,1.19,2.6,1.78,4.36,1.78C334.89,73.67,336.33,73.08,337.48,71.89"/>
		<polygon class="st4" points="381.01,48.14 381.01,78.95 373.88,78.95 373.88,66.32 359.88,66.32 359.88,78.95 352.75,78.95 
			352.75,48.14 359.88,48.14 359.88,60.29 373.88,60.29 373.88,48.14 		"/>
		<path class="st4" d="M410.9,69.05h-17.92c0.32,1.47,1.09,2.63,2.29,3.48c1.2,0.85,2.7,1.28,4.49,1.28c1.23,0,2.33-0.18,3.28-0.55
			c0.95-0.37,1.84-0.95,2.66-1.74l3.65,3.96c-2.23,2.55-5.49,3.83-9.77,3.83c-2.67,0-5.03-0.52-7.09-1.56
			c-2.05-1.04-3.64-2.49-4.76-4.33c-1.11-1.85-1.67-3.95-1.67-6.3c0-2.32,0.55-4.41,1.65-6.27c1.1-1.86,2.61-3.32,4.53-4.36
			c1.92-1.04,4.07-1.56,6.45-1.56c2.32,0,4.42,0.5,6.29,1.5c1.88,1,3.35,2.43,4.42,4.29c1.07,1.86,1.61,4.03,1.61,6.49
			C411.03,67.29,410.99,67.9,410.9,69.05 M394.83,61.43c-1.06,0.88-1.7,2.08-1.94,3.61h11.67c-0.24-1.5-0.88-2.69-1.94-3.59
			c-1.06-0.9-2.35-1.34-3.87-1.34C397.2,60.11,395.89,60.55,394.83,61.43"/>
		<path class="st4" d="M425.49,55.8c1.39-0.59,3-0.88,4.82-0.88v6.34c-0.76-0.06-1.28-0.09-1.54-0.09c-1.97,0-3.51,0.55-4.62,1.65
			c-1.11,1.1-1.67,2.75-1.67,4.95v11.18h-6.87V55.27h6.56v3.13C422.99,57.25,424.1,56.38,425.49,55.8"/>
		<path class="st4" d="M438.74,77.74c-1.98-1.04-3.53-2.49-4.64-4.33c-1.12-1.85-1.67-3.95-1.67-6.29c0-2.35,0.56-4.45,1.67-6.3
			c1.12-1.85,2.66-3.29,4.64-4.34c1.98-1.04,4.22-1.56,6.71-1.56c2.5,0,4.73,0.52,6.69,1.56c1.97,1.04,3.51,2.49,4.62,4.34
			c1.11,1.85,1.67,3.95,1.67,6.3c0,2.35-0.56,4.45-1.67,6.29c-1.12,1.85-2.66,3.29-4.62,4.33c-1.97,1.04-4.2,1.56-6.69,1.56
			C442.96,79.3,440.73,78.78,438.74,77.74 M449.79,71.89c1.13-1.19,1.69-2.78,1.69-4.78c0-2-0.57-3.59-1.69-4.78
			c-1.13-1.19-2.57-1.78-4.34-1.78c-1.76,0-3.21,0.59-4.36,1.78c-1.14,1.19-1.72,2.78-1.72,4.78c0,2,0.57,3.59,1.72,4.78
			c1.14,1.19,2.6,1.78,4.36,1.78C447.22,73.67,448.66,73.08,449.79,71.89"/>
	</g>
</g>
</svg>
